<svg xmlns="http://www.w3.org/2000/svg" viewBox="0 0 64 64" width="64" height="64" role="img" aria-label="Знак: две незамкнутые дуги, образующие телефонную трубку внутри щита">
  <title>Signals &amp; Protocols brand mark</title>
  <!-- outer shield: incomplete arc -->
  <path d="M32 5.5 L54 13.2 V31 c0 12.6-8.4 21.6-22 27.4"
        fill="none" stroke="#101A35" stroke-width="4.6" stroke-linecap="round"/>
  <path d="M32 58.4 C18.4 52.6 10 43.6 10 31 V13.2 L32 5.5"
        fill="none" stroke="#101A35" stroke-width="4.6" stroke-linecap="round" opacity=".28"/>
  <!-- inner handset: two incomplete arcs -->
  <path d="M22.4 23.2 c0-3.1 2.5-5.6 5.6-5.6 1.4 0 2.2.9 2.6 2.2l1.1 3.6c.4 1.4-.1 2.6-1.3 3.3l-2 1.2"
        fill="none" stroke="#8FE3E5" stroke-width="4.2" stroke-linecap="round"/>
  <path d="M41.6 40.8 c0 3.1-2.5 5.6-5.6 5.6-1.4 0-2.2-.9-2.6-2.2l-1.1-3.6c-.4-1.4.1-2.6 1.3-3.3l2-1.2"
        fill="none" stroke="#8FE3E5" stroke-width="4.2" stroke-linecap="round"/>
  <path d="M28.4 27.9 c1.6 4.6 4.2 7.9 8.2 10.2" fill="none" stroke="#8FE3E5" stroke-width="4.2" stroke-linecap="round" opacity=".5"/>
  <!-- amber checkpoint accent -->
  <circle cx="45.2" cy="20.6" r="3.1" fill="#D8932E"/>
</svg>
