<svg xmlns="http://www.w3.org/2000/svg" viewBox="0 0 64 64" width="64" height="64">
  <rect width="64" height="64" rx="13" fill="#101A35"/>
  <path d="M32 9 L52 16 V31.4 c0 11.4-7.6 19.6-20 24.8" fill="none" stroke="#DFF5F5" stroke-width="4" stroke-linecap="round" opacity=".55"/>
  <path d="M23.6 24.4 c0-2.9 2.3-5.2 5.2-5.2 1.3 0 2 .8 2.4 2l1 3.3c.4 1.3-.1 2.4-1.2 3.1l-1.8 1.1" fill="none" stroke="#8FE3E5" stroke-width="4" stroke-linecap="round"/>
  <path d="M40.4 40.6 c0 2.9-2.3 5.2-5.2 5.2-1.3 0-2-.8-2.4-2l-1-3.3c-.4-1.3.1-2.4 1.2-3.1l1.8-1.1" fill="none" stroke="#8FE3E5" stroke-width="4" stroke-linecap="round"/>
  <path d="M29.2 28.7 c1.5 4.2 3.9 7.3 7.6 9.4" fill="none" stroke="#8FE3E5" stroke-width="4" stroke-linecap="round" opacity=".5"/>
  <circle cx="45" cy="21" r="3" fill="#D8932E"/>
</svg>
